<svg xmlns="http://www.w3.org/2000/svg" xmlns:xlink="http://www.w3.org/1999/xlink" fill="none" version="1.1" width="107" height="32" viewBox="0 0 107 32"><defs><clipPath id="master_svg0_18_37109"><rect x="75" y="0" width="32" height="32" rx="0"/></clipPath><linearGradient x1="0.5" y1="0" x2="0.5" y2="1" id="master_svg1_18_35977"><stop offset="56.42856955528259%" stop-color="#0076FE" stop-opacity="1"/><stop offset="100%" stop-color="#29F1FF" stop-opacity="0"/></linearGradient><linearGradient x1="0.5" y1="0" x2="0.5" y2="1" id="master_svg2_18_35977"><stop offset="56.42856955528259%" stop-color="#0076FE" stop-opacity="1"/><stop offset="100%" stop-color="#29F1FF" stop-opacity="0"/></linearGradient><linearGradient x1="35" y1="4" x2="35" y2="28" gradientUnits="userSpaceOnUse" id="master_svg3_18_36721"><stop offset="56.42856955528259%" stop-color="#0076FE" stop-opacity="1"/><stop offset="100%" stop-color="#0076FE" stop-opacity="0"/></linearGradient></defs><g><g clip-path="url(#master_svg0_18_37109)"><g><path d="M102.99995195312499,10.666748046875C101.066551953125,10.666748046875,99.986551953125,12.586748046875,100.426551953125,14.013418046875L95.693251953125,18.760078046875C95.29325195312501,18.640078046875,94.706551953125,18.640078046875,94.306551953125,18.760078046875L90.906551953125,15.360078046875C91.359951953125,13.933418046875,90.27995195312499,12.000078046875,88.333251953125,12.000078046875C86.399951953125,12.000078046875,85.306581953125,13.920078046875,85.759921953125,15.360078046875L79.679921953125,21.426748046874998C78.253251953125,20.986748046875,76.333251953125,22.066748046875,76.333251953125,24.000048046875C76.333251953125,25.466748046875,77.533251953125,26.666748046875,78.999921953125,26.666748046875C80.933251953125,26.666748046875,82.013251953125,24.746748046875,81.573251953125,23.320048046875L87.639951953125,17.240078046875C88.039951953125,17.360078046875,88.626551953125,17.360078046875,89.026551953125,17.240078046875L92.426551953125,20.640088046875C91.973251953125,22.066748046875,93.053251953125,24.000048046875,94.99995195312499,24.000048046875C96.933251953125,24.000048046875,98.026551953125,22.080048046875,97.573251953125,20.640088046875L102.319951953125,15.906748046875C103.74655195312499,16.346748046875,105.66655195312501,15.266748046875,105.66655195312501,13.333418046875C105.66655195312501,11.866748046875,104.46655195312499,10.666748046875,102.99995195312499,10.666748046875Z" fill="url(#master_svg1_18_35977)" fill-opacity="1" style="mix-blend-mode:passthrough"/></g><g><path d="M94.99995195312499,12L96.253251953125,9.24L98.99995195312499,8L96.253251953125,6.76L94.99995195312499,4L93.773251953125,6.76L90.999951953125,8L93.773251953125,9.24L94.99995195312499,12ZM79.666581953125,14.6667L80.333251953125,12L82.999921953125,11.33333L80.333251953125,10.66667L79.666581953125,8L78.999921953125,10.66667L76.333251953125,11.33333L78.999921953125,12L79.666581953125,14.6667Z" fill="url(#master_svg2_18_35977)" fill-opacity="1" style="mix-blend-mode:passthrough"/></g></g><g><path d="M1.65057,21L0.357955,21L4.09659,10.81818L5.36932,10.81818L9.10795,21L7.81534,21L4.77273,12.42898L4.69318,12.42898L1.65057,21ZM2.12784,17.0227L7.33807,17.0227L7.33807,18.116500000000002L2.12784,18.116500000000002L2.12784,17.0227ZM11.9318,10.81818L11.9318,21L10.6989,21L10.6989,10.81818L11.9318,10.81818ZM19.5682,10.81818L19.5682,21L18.3352,21L18.3352,10.81818L19.5682,10.81818ZM23.0483,16.4062L23.0483,21L21.875,21L21.875,13.36364L23.0085,13.36364L23.0085,14.5568L23.108,14.5568Q23.3764,13.97514,23.9233,13.61967Q24.4702,13.2642,25.3352,13.2642Q26.1108,13.2642,26.6925,13.5799Q27.2741,13.8956,27.5973,14.5344Q27.9205,15.1733,27.9205,16.1477L27.9205,21L26.7472,21L26.7472,16.2273Q26.7472,15.3274,26.2798,14.8228Q25.8125,14.3182,24.9972,14.3182Q24.4354,14.3182,23.9954,14.5618Q23.5554,14.8054,23.3018,15.2727Q23.0483,15.7401,23.0483,16.4062ZM35.4773,15.0739L34.4233,15.3722Q34.3239,15.1087,34.1325,14.8576Q33.9411,14.6065,33.6129,14.4425Q33.2848,14.2784,32.7727,14.2784Q32.0717,14.2784,31.6069,14.5991Q31.142,14.9197,31.142,15.4119Q31.142,15.8494,31.4602,16.103Q31.7784,16.3565,32.4545,16.5256L33.5881,16.804000000000002Q34.6122,17.052599999999998,35.1143,17.5621Q35.6165,18.0717,35.6165,18.8722Q35.6165,19.528399999999998,35.2411,20.0455Q34.8658,20.5625,34.1946,20.8608Q33.5234,21.1591,32.6335,21.1591Q31.4652,21.1591,30.6996,20.652Q29.9339,20.1449,29.7301,19.1705L30.8438,18.892Q31.0028,19.508499999999998,31.4478,19.8168Q31.8928,20.125,32.6136,20.125Q33.4339,20.125,33.9187,19.7745Q34.4034,19.424,34.4034,18.931800000000003Q34.4034,18.534100000000002,34.125,18.2631Q33.8466,17.9922,33.2699,17.858L31.9972,17.5597Q30.9482,17.3111,30.4585,16.7866Q29.9688,16.2621,29.9688,15.4716Q29.9688,14.8253,30.3342,14.3281Q30.6996,13.83097,31.3335,13.54759Q31.9673,13.2642,32.7727,13.2642Q33.9062,13.2642,34.555,13.76136Q35.2038,14.2585,35.4773,15.0739ZM37.3864,21L37.3864,13.36364L38.5597,13.36364L38.5597,21L37.3864,21ZM37.983,12.09091Q37.6399,12.09091,37.3938,11.857240000000001Q37.1477,11.62358,37.1477,11.295449999999999Q37.1477,10.96733,37.3938,10.73366Q37.6399,10.5,37.983,10.5Q38.326,10.5,38.5721,10.73366Q38.8182,10.96733,38.8182,11.295449999999999Q38.8182,11.62358,38.5721,11.857240000000001Q38.326,12.09091,37.983,12.09091ZM43.7898,24.0227Q42.9396,24.0227,42.3281,23.8065Q41.7166,23.5902,41.3114,23.2397Q40.9062,22.8892,40.6676,22.4915L41.6023,21.8352Q41.7614,22.044,42.005,22.315Q42.2486,22.5859,42.6736,22.7873Q43.0987,22.9886,43.7898,22.9886Q44.7145,22.9886,45.3161,22.5412Q45.9176,22.0938,45.9176,21.1392L45.9176,19.5881L45.8182,19.5881Q45.6889,19.7969,45.4528,20.1026Q45.2166,20.4084,44.7766,20.6445Q44.3366,20.8807,43.5909,20.8807Q42.6662,20.8807,41.9329,20.4432Q41.1996,20.0057,40.7745,19.1705Q40.3494,18.3352,40.3494,17.142Q40.3494,15.9688,40.7621,15.0962Q41.1747,14.2237,41.9105,13.74396Q42.6463,13.2642,43.6108,13.2642Q44.3565,13.2642,44.7965,13.5103Q45.2365,13.75639,45.4727,14.0671Q45.7088,14.3778,45.8381,14.5767L45.9574,14.5767L45.9574,13.36364L47.0909,13.36364L47.0909,21.2188Q47.0909,22.2031,46.646,22.8221Q46.201,23.4411,45.4528,23.7319Q44.7045,24.0227,43.7898,24.0227ZM43.75,19.826700000000002Q44.456,19.826700000000002,44.9432,19.5036Q45.4304,19.1804,45.6839,18.573900000000002Q45.9375,17.9673,45.9375,17.1222Q45.9375,16.2969,45.6889,15.6655Q45.4403,15.0341,44.9531,14.6761Q44.4659,14.3182,43.75,14.3182Q43.0043,14.3182,42.5096,14.696Q42.0149,15.0739,41.7688,15.7102Q41.5227,16.346600000000002,41.5227,17.1222Q41.5227,17.9176,41.7738,18.526600000000002Q42.0249,19.1357,42.5195,19.4812Q43.0142,19.826700000000002,43.75,19.826700000000002ZM50.4119,16.4062L50.4119,21L49.2386,21L49.2386,10.81818L50.4119,10.81818L50.4119,14.5568L50.5114,14.5568Q50.7798,13.9652,51.3192,13.6147Q51.8587,13.2642,52.7585,13.2642Q53.5391,13.2642,54.1257,13.57493Q54.7124,13.88565,55.038,14.5245Q55.3636,15.1634,55.3636,16.1477L55.3636,21L54.1903,21L54.1903,16.2273Q54.1903,15.3175,53.7205,14.8178Q53.2507,14.3182,52.4205,14.3182Q51.8438,14.3182,51.3888,14.5618Q50.9339,14.8054,50.6729,15.2727Q50.4119,15.7401,50.4119,16.4062ZM60.8324,13.36364L60.8324,14.358L56.875,14.358L56.875,13.36364L60.8324,13.36364ZM58.0284,11.534089999999999L59.2017,11.534089999999999L59.2017,18.8125Q59.2017,19.3097,59.3484,19.555799999999998Q59.495,19.8018,59.7262,19.8839Q59.9574,19.965899999999998,60.2159,19.965899999999998Q60.4098,19.965899999999998,60.5341,19.9435Q60.6584,19.9212,60.733,19.9062L60.9716,20.9602Q60.8523,21.005,60.6385,21.0522Q60.4247,21.0994,60.0966,21.0994Q59.5994,21.0994,59.1246,20.8857Q58.6499,20.6719,58.3391,20.2344Q58.0284,19.7969,58.0284,19.130699999999997L58.0284,11.534089999999999ZM67.8722,15.0739L66.8182,15.3722Q66.7188,15.1087,66.5273,14.8576Q66.3359,14.6065,66.0078,14.4425Q65.6797,14.2784,65.1676,14.2784Q64.4666,14.2784,64.0018,14.5991Q63.5369,14.9197,63.5369,15.4119Q63.5369,15.8494,63.8551,16.103Q64.1733,16.3565,64.8494,16.5256L65.983,16.804000000000002Q67.0071,17.052599999999998,67.5092,17.5621Q68.0114,18.0717,68.0114,18.8722Q68.0114,19.528399999999998,67.636,20.0455Q67.2607,20.5625,66.5895,20.8608Q65.9183,21.1591,65.0284,21.1591Q63.8601,21.1591,63.0945,20.652Q62.3288,20.1449,62.125,19.1705L63.2386,18.892Q63.3977,19.508499999999998,63.8427,19.8168Q64.2876,20.125,65.0085,20.125Q65.8288,20.125,66.3136,19.7745Q66.7983,19.424,66.7983,18.931800000000003Q66.7983,18.534100000000002,66.5199,18.2631Q66.2415,17.9922,65.6648,17.858L64.392,17.5597Q63.343,17.3111,62.8533,16.7866Q62.3636,16.2621,62.3636,15.4716Q62.3636,14.8253,62.729,14.3281Q63.0945,13.83097,63.7283,13.54759Q64.3622,13.2642,65.1676,13.2642Q66.3011,13.2642,66.9499,13.76136Q67.5987,14.2585,67.8722,15.0739Z" fill="url(#master_svg3_18_36721)" fill-opacity="1"/></g></g></svg>