<svg xmlns="http://www.w3.org/2000/svg" xmlns:xlink="http://www.w3.org/1999/xlink" fill="none" version="1.1" width="54" height="54" viewBox="0 0 54 54"><defs><clipPath id="master_svg0_18_42533"><rect x="0" y="0" width="54" height="54" rx="0"/></clipPath><linearGradient x1="0.5" y1="0" x2="0.5" y2="1" id="master_svg1_18_35977"><stop offset="56.42856955528259%" stop-color="#0076FE" stop-opacity="1"/><stop offset="100%" stop-color="#29F1FF" stop-opacity="0"/></linearGradient><linearGradient x1="0.5" y1="0" x2="0.5" y2="1" id="master_svg2_18_35977"><stop offset="56.42856955528259%" stop-color="#0076FE" stop-opacity="1"/><stop offset="100%" stop-color="#29F1FF" stop-opacity="0"/></linearGradient></defs><g clip-path="url(#master_svg0_18_42533)"><g><path d="M47.2498779296875,18C43.9873779296875,18,42.1648779296875,21.240000000000002,42.9073779296875,23.6475L34.9198779296875,31.6575C34.244877929687505,31.455,33.254877929687495,31.455,32.5798779296875,31.6575L26.8423779296875,25.92C27.6073779296875,23.5125,25.7848779296875,20.25,22.4998779296875,20.25C19.2373779296875,20.25,17.3923779296875,23.490000000000002,18.1573779296875,25.92L7.8973779296875,36.1575C5.4898779296875,35.415,2.2498779296875,37.2375,2.2498779296875,40.5C2.2498779296875,42.975,4.2748779296875,45,6.7498779296875,45C10.0123779296875,45,11.8348779296875,41.760000000000005,11.0923779296875,39.3525L21.3298779296875,29.0925C22.0048779296875,29.295,22.9948779296875,29.295,23.6698779296875,29.0925L29.4073779296875,34.83C28.6423779296875,37.2375,30.4648779296875,40.5,33.7498779296875,40.5C37.0123779296875,40.5,38.8573779296875,37.260000000000005,38.0923779296875,34.83L46.1023779296875,26.8425C48.5098779296875,27.585,51.7498779296875,25.7625,51.7498779296875,22.5C51.7498779296875,20.025,49.7248779296875,18,47.2498779296875,18Z" fill="url(#master_svg1_18_35977)" fill-opacity="1" style="mix-blend-mode:passthrough"/></g><g><path d="M33.7498779296875,20.25L35.8648779296875,15.5925L40.4998779296875,13.5L35.8648779296875,11.407499999999999L33.7498779296875,6.75L31.6798779296875,11.407499999999999L26.9998779296875,13.5L31.6798779296875,15.5925L33.7498779296875,20.25ZM7.8748779296875,24.75L8.9998779296875,20.25L13.4998779296875,19.125L8.9998779296875,18L7.8748779296875,13.5L6.7498779296875,18L2.2498779296875,19.125L6.7498779296875,20.25L7.8748779296875,24.75Z" fill="url(#master_svg2_18_35977)" fill-opacity="1" style="mix-blend-mode:passthrough"/></g></g></svg>